<?xml version="1.0" standalone="no"?>
<!DOCTYPE svg PUBLIC "-//W3C//DTD SVG 20010904//EN"
 "http://www.w3.org/TR/2001/REC-SVG-20010904/DTD/svg10.dtd">
<svg version="1.0" xmlns="http://www.w3.org/2000/svg"
 width="256.000000pt" height="256.000000pt" viewBox="0 0 256.000000 256.000000"
 preserveAspectRatio="xMidYMid meet">
<metadata>
Created by potrace 1.14, written by Peter Selinger 2001-2017
</metadata>
<g transform="translate(0.000000,256.000000) scale(0.100000,-0.100000)"
fill="#000000" stroke="none">
<path d="M1190 2423 c-15 -16 -53 -41 -84 -57 -73 -37 -149 -120 -175 -191
-12 -31 -21 -62 -21 -70 0 -8 -12 -36 -26 -62 -22 -41 -25 -57 -20 -103 5 -55
29 -90 61 -90 8 0 19 -29 29 -72 21 -93 83 -220 136 -281 154 -174 337 -123
460 128 22 44 47 112 55 150 14 62 20 72 48 85 53 25 63 130 18 191 -12 16
-21 37 -21 48 0 81 -96 214 -192 266 -29 15 -68 41 -86 57 -28 24 -41 28 -93
28 -53 0 -64 -4 -89 -27z m120 -198 l0 -145 -30 0 -30 0 0 145 0 145 30 0 30
0 0 -145z m-150 -35 l0 -110 -86 0 -86 0 7 28 c16 65 45 112 95 151 28 23 56
41 61 41 5 0 9 -49 9 -110z m310 69 c50 -39 79 -86 95 -151 l7 -28 -86 0 -86
0 0 110 c0 61 4 110 9 110 5 0 33 -18 61 -41z m148 -301 l-3 -33 -335 0 -335
0 -3 33 -3 32 341 0 341 0 -3 -32z m-93 -155 c-21 -121 -82 -235 -158 -297
-31 -25 -48 -31 -87 -31 -39 0 -56 6 -87 31 -76 62 -137 176 -158 297 l-6 37
251 0 251 0 -6 -37z"/>
<path d="M1148 1689 c-10 -5 -18 -19 -18 -29 0 -30 57 -87 105 -106 42 -16 48
-16 90 0 48 19 105 76 105 106 0 11 -9 24 -19 30 -16 8 -28 3 -66 -30 -25 -22
-55 -40 -66 -40 -11 0 -39 18 -63 40 -48 45 -45 43 -68 29z"/>
<path d="M771 1353 c-34 -7 -69 -31 -76 -53 -5 -15 -19 -19 -95 -22 -100 -3
-131 -18 -164 -79 -19 -35 -19 -39 13 -498 18 -255 37 -475 42 -490 14 -36 48
-71 86 -87 48 -21 1358 -21 1406 0 38 16 72 51 86 87 5 15 24 235 42 490 32
459 32 463 13 498 -33 61 -64 76 -164 79 -76 3 -90 7 -95 22 -12 39 -55 54
-170 58 -106 4 -112 3 -140 -21 -75 -62 -474 -63 -548 -1 -26 22 -37 24 -120
23 -51 -1 -103 -4 -116 -6z m327 -304 l142 -231 0 -69 0 -69 -233 0 -234 0 -6
203 c-9 258 -9 382 0 390 3 4 47 7 97 7 l91 0 143 -231z m699 216 c3 -9 2
-144 -2 -300 l-7 -285 -234 0 -234 0 0 69 0 69 142 231 143 231 93 0 c74 0 94
-3 99 -15z m-1103 -607 c3 -73 8 -208 12 -300 l6 -168 -54 0 c-44 0 -59 4 -77
24 -20 22 -23 40 -36 227 -8 112 -17 237 -19 277 l-6 72 84 0 84 0 6 -132z
m1340 60 c-2 -40 -11 -165 -19 -277 -13 -187 -16 -205 -36 -227 -18 -20 -32
-24 -77 -24 l-54 0 6 168 c3 92 9 227 12 300 l6 132 84 0 84 0 -6 -72z m-794
-153 l0 -35 -230 0 -230 0 0 35 0 35 230 0 230 0 0 -35z m540 0 l0 -35 -230 0
-230 0 0 35 0 35 230 0 230 0 0 -35z m-540 -170 l0 -55 -230 0 -230 0 0 55 0
55 230 0 230 0 0 -55z m540 0 l0 -55 -230 0 -230 0 0 55 0 55 230 0 230 0 0
-55z m-540 -170 l0 -35 -222 2 -223 3 -3 33 -3 32 225 0 226 0 0 -35z m528 3
l-3 -33 -222 -3 -223 -2 0 35 0 35 226 0 225 0 -3 -32z"/>
<path d="M1533 956 c-25 -22 -28 -30 -28 -91 0 -61 3 -69 28 -91 23 -19 39
-24 87 -24 48 0 64 5 87 24 25 22 28 30 28 91 0 61 -3 69 -28 91 -23 19 -39
24 -87 24 -48 0 -64 -5 -87 -24z m95 -62 c16 -5 22 -14 22 -35 0 -26 -4 -29
-30 -29 -28 0 -30 3 -30 35 0 37 2 38 38 29z"/>
</g>
</svg>
